<svg width="800" height="1000" viewBox="0 0 800 1000" fill="none" xmlns="http://www.w3.org/2000/svg">
<defs>
  <linearGradient id="bg" x1="104" y1="80" x2="704" y2="920" gradientUnits="userSpaceOnUse">
    <stop stop-color="#F8FAFF"/>
    <stop offset="1" stop-color="#EAF0FF"/>
  </linearGradient>
  <linearGradient id="accent" x1="180" y1="220" x2="604" y2="784" gradientUnits="userSpaceOnUse">
    <stop stop-color="#3B5BDB" stop-opacity="0.92"/>
    <stop offset="1" stop-color="#6C8CFF" stop-opacity="0.72"/>
  </linearGradient>
  <radialGradient id="glow" cx="0" cy="0" r="1" gradientUnits="userSpaceOnUse" gradientTransform="translate(400 300) rotate(90) scale(240 220)">
    <stop stop-color="#FFFFFF" stop-opacity="0.95"/>
    <stop offset="1" stop-color="#FFFFFF" stop-opacity="0"/>
  </radialGradient>
</defs>
<rect width="800" height="1000" rx="48" fill="url(#bg)"/>
<circle cx="548" cy="196" r="156" fill="#DCE6FF"/>
<circle cx="204" cy="742" r="184" fill="#EDF3FF"/>
<circle cx="400" cy="340" r="242" fill="url(#glow)"/>
<g opacity="0.9">
  <rect x="172" y="160" width="456" height="680" rx="220" fill="url(#accent)" opacity="0.12"/>
  <ellipse cx="400" cy="404" rx="148" ry="168" fill="#F7F9FF"/>
  <ellipse cx="400" cy="386" rx="104" ry="118" fill="#E4E9F5"/>
  <path d="M285 710C304 602 347 558 400 558C453 558 496 602 515 710" fill="#F7F9FF"/>
  <path d="M300 318C315 256 351 226 400 226C449 226 485 256 500 318" fill="#1F2937" opacity="0.12"/>
  <path d="M321 324C338 290 364 272 400 272C436 272 462 290 479 324" stroke="#1F2937" stroke-opacity="0.12" stroke-width="12" stroke-linecap="round"/>
  <circle cx="352" cy="404" r="12" fill="#111827" fill-opacity="0.18"/>
  <circle cx="448" cy="404" r="12" fill="#111827" fill-opacity="0.18"/>
  <path d="M356 462C373 481 427 481 444 462" stroke="#111827" stroke-opacity="0.18" stroke-width="10" stroke-linecap="round"/>
</g>
<g opacity="0.4" stroke="#3B5BDB" stroke-width="2">
  <rect x="122" y="126" width="556" height="748" rx="36" stroke-dasharray="8 10"/>
</g>
</svg>
